<?xml version="1.0" encoding="UTF-8"?>
<svg id="Capa_2" data-name="Capa 2" xmlns="http://www.w3.org/2000/svg" viewBox="0 0 755.66 234.34">
  <defs>
    <style>
      .cls-1 {
        fill: #fff;
        stroke-width: 0px;
      }
    </style>
  </defs>
  <g id="Capa_1-2" data-name="Capa 1">
    <g>
      <g>
        <path class="cls-1" d="M258.11,131.68c-4.7-4.63-7.05-10.96-7.05-18.99v-31.35c0-2.24-.45-3.96-1.33-5.16-.89-1.19-2.01-1.96-3.37-2.3-2.24-.61-3.37-1.36-3.37-2.25,0-.75.99-1.12,2.96-1.12l4.39.1c2.18.14,3.98.2,5.41.2l4.9-.1c.82-.07,1.9-.1,3.27-.1,1.97,0,2.96.38,2.96,1.12,0,.41-.24.75-.71,1.02-.48.27-1.36.61-2.66,1.02-.95.28-1.9,1.11-2.86,2.5-.95,1.39-1.43,3.01-1.43,4.85v28.69c0,7.9,1.94,13.82,5.82,17.77,3.88,3.95,9.09,5.92,15.62,5.92s11.9-2.37,15.26-7.1c3.37-4.73,5.06-11.21,5.06-19.45,0-4.15-.14-11.47-.41-21.95-.07-2.86-.45-5.33-1.13-7.4-.68-2.08-1.7-3.32-3.06-3.72-2.25-.61-3.37-1.29-3.37-2.04s.99-1.13,2.96-1.13l7.66.1c1.29,0,2.89-.06,4.8-.2l3.47-.1c1.97,0,2.96.37,2.96,1.12,0,.89-1.12,1.57-3.37,2.05-3.21.61-4.9,3.16-5.11,7.66-.27,4.15-.46,8.39-.56,12.71-.1,4.32-.19,7.23-.26,8.73,0,1.98-.07,4.94-.2,8.88-.14,5.18-1.39,9.82-3.77,13.94-2.39,4.12-5.59,7.31-9.6,9.6-4.02,2.28-8.51,3.42-13.48,3.42-8.92,0-15.73-2.32-20.42-6.94"/>
        <path class="cls-1" d="M314.26,136.38c0-.48.17-.8.51-.97.34-.17.95-.39,1.84-.66,1.43-.34,2.52-.76,3.27-1.28.75-.51,1.12-1.38,1.12-2.6v-21.95c0-2.18-.24-3.85-.71-5.01-.48-1.15-1.5-1.94-3.06-2.35-.69-.2-1.02-.64-1.02-1.32,0-.75.3-1.15.92-1.23,2.11-.54,3.9-1.22,5.36-2.04,1.46-.82,3.08-1.87,4.85-3.16.47-.34.85-.51,1.12-.51.34,0,.51.24.51.71l-.2,2.14c-.07.55-.14,1.21-.2,1.99-.07.78-.1,1.59-.1,2.4,0,.68.07,1.09.21,1.22,2.45-2.31,5-4.03,7.66-5.16,2.65-1.12,5.58-1.68,8.78-1.68s6,1.36,8.22,4.08c2.21,2.73,3.32,6.09,3.32,10.11v21.75c0,1.22.36,2.06,1.07,2.5.72.44,1.82.9,3.32,1.38.82.27,1.41.53,1.79.77.37.24.56.59.56,1.07,0,.61-.68.92-2.04.92-1.84,0-3.3-.1-4.39-.31-1.36-.13-2.62-.21-3.77-.21-1.09,0-2.39.07-3.88.21-1.09.2-2.58.31-4.49.31-1.36,0-2.04-.31-2.04-.92,0-.48.19-.83.56-1.07.37-.24.97-.5,1.79-.77,1.5-.48,2.6-.93,3.31-1.38.72-.45,1.07-1.28,1.07-2.5v-21.44c0-2.93-.83-5.24-2.5-6.95-1.67-1.7-3.9-2.58-6.69-2.65-4.22,0-8,1.37-11.33,4.08-.54.55-.82,1.33-.82,2.35v24.61c0,1.22.37,2.09,1.13,2.6.75.51,1.84.94,3.26,1.28.82.21,1.41.43,1.79.66.37.24.56.56.56.97,0,.75-.68,1.12-2.04,1.12-1.77,0-3.23-.1-4.39-.31-1.5-.13-2.79-.21-3.88-.21s-2.38.07-3.88.21c-1.09.2-2.55.31-4.39.31-1.36,0-2.05-.38-2.05-1.12"/>
        <path class="cls-1" d="M364.09,136.38c0-.47.19-.81.56-1.02.38-.21.97-.41,1.79-.61,1.57-.41,2.69-.87,3.37-1.38.68-.51,1.03-1.34,1.03-2.5v-22.16c0-4.49-1.53-6.98-4.6-7.45-.68-.07-1.02-.51-1.02-1.33,0-.75.31-1.16.92-1.23,4.15-.95,7.73-2.66,10.72-5.11.61-.47,1.09-.72,1.43-.72.41,0,.61.17.61.51,0,.75-.1,2.05-.3,3.88-.07.82-.19,2.33-.36,4.54-.17,2.22-.26,4-.26,5.36v23.69c0,1.09.36,1.91,1.07,2.45.71.54,1.82,1.02,3.32,1.43.82.2,1.41.41,1.79.61.37.2.56.54.56,1.02,0,.75-.68,1.12-2.04,1.12-1.7,0-3.13-.1-4.29-.31-1.49-.13-2.82-.2-3.98-.2-1.09,0-2.38.07-3.88.2-1.09.2-2.55.31-4.39.31-1.36,0-2.04-.38-2.04-1.12M370.67,83.03c-.99-.99-1.48-2.2-1.48-3.62s.49-2.74,1.48-3.73c.99-.99,2.19-1.48,3.62-1.48s2.74.49,3.72,1.48c.99.99,1.48,2.23,1.48,3.73s-.5,2.64-1.48,3.62c-.98.99-2.23,1.48-3.72,1.48s-2.64-.49-3.62-1.48"/>
        <path class="cls-1" d="M390.84,137.24c-1.29-.92-2.37-2.07-3.22-3.47-.85-1.39-1.28-2.71-1.28-3.93,0-2.11.56-3.78,1.69-5,1.12-1.22,2.98-2.38,5.56-3.47l10.42-4.29c1.29-.54,2.08-1.02,2.35-1.43.27-.41.44-1.29.51-2.66l.21-6.54c.07-1.84-.44-3.38-1.53-4.65-1.09-1.26-2.59-1.89-4.49-1.89-1.02,0-2.04.17-3.06.51-1.03.34-1.87.78-2.55,1.33-.68.48-1.02,1.46-1.02,2.96l.1,1.84c0,.54-.87,1.28-2.61,2.2-1.73.92-3.11,1.38-4.13,1.38-.34,0-.61-.09-.82-.26-.2-.17-.3-.39-.3-.67,0-1.09.36-2.26,1.07-3.52.71-1.26,1.72-2.43,3.01-3.52,2.31-2.11,4.92-3.85,7.81-5.21,2.89-1.36,5.36-2.04,7.4-2.04,2.45,0,4.47.87,6.07,2.6,1.6,1.73,2.36,3.9,2.3,6.48l-.51,24.51c-.07,1.43.24,2.59.92,3.47.68.89,1.6,1.33,2.76,1.33,1.7,0,2.96-.37,3.78-1.12.34-.34.61-.51.81-.51.34,0,.61.1.82.3.21.21.31.48.31.82,0,.27-.1.63-.31,1.07-.2.44-.48.83-.82,1.17-1.09,1.09-2.27,1.96-3.52,2.6-1.26.65-2.43.97-3.52.97-3.13,0-5.62-1.77-7.46-5.31h-.31c-2.24,1.84-4.39,3.18-6.43,4.03-2.04.85-4.15,1.28-6.33,1.28-1.16,0-2.38-.46-3.68-1.38M405.34,131.27c.41-.41.72-.92.92-1.53.2-.61.34-1.5.41-2.66l.2-5v-.61c0-.54-.06-.94-.2-1.17-.14-.24-.38-.36-.71-.36-.41,0-1.09.17-2.05.51-3.4,1.23-5.85,2.52-7.35,3.88-1.5,1.36-2.24,2.69-2.24,3.98,0,1.71.49,3.03,1.48,3.98.99.95,2.16,1.43,3.53,1.43,2.38,0,4.39-.82,6.02-2.45"/>
        <path class="cls-1" d="M455.88,138.32l.2-2.76c.21-1.36.31-2.56.31-3.57v-.61c-2.59,2.59-5.24,4.44-7.97,5.56-2.72,1.12-5.68,1.68-8.88,1.68-3.47,0-6.28-1.06-8.42-3.17-2.15-2.11-3.22-5.1-3.22-8.98v-20.73c0-1.5-.34-2.69-1.02-3.57-.68-.89-1.8-1.63-3.37-2.25-.89-.27-1.33-.82-1.33-1.64,0-.95.51-1.49,1.53-1.63,2.11-.14,3.78-.31,5-.51,1.23-.2,2.93-.57,5.11-1.12l.81-.1c.75,0,1.09.48,1.02,1.43-.41,3.13-.61,5.75-.61,7.86v19.91c0,2.45.89,4.61,2.65,6.48,1.77,1.87,3.74,2.81,5.92,2.81,2.04,0,3.69-.12,4.95-.36,1.26-.24,2.47-.8,3.62-1.68,1.22-.88,2.3-1.92,3.21-3.12.92-1.19,1.38-2.7,1.38-4.54v-18.69c0-1.84-.76-3.15-2.3-3.93-1.53-.78-3.05-1.17-4.54-1.17s-2.14-.58-2.14-1.73c0-1.03.71-1.54,2.14-1.54,2.93-.07,5.26-.22,7-.46,1.73-.24,3.59-.63,5.56-1.17.4-.13.75-.21,1.02-.21.34,0,.65.11.92.31.27.21.41.48.41.82l-.21.92c-.14.75-.29,1.82-.46,3.21-.17,1.4-.26,2.67-.26,3.83v23.59c0,3.41.61,5.1,1.84,5.1l2.35-.2,2.35-.1c1.02,0,1.53.45,1.53,1.33,0,.54-.12.9-.36,1.07-.24.17-.6.29-1.07.36-2.31.34-4.36.78-6.13,1.32s-3.71,1.26-5.82,2.14c-.81.41-1.5.61-2.04.61-.48,0-.71-.27-.71-.81"/>
        <path class="cls-1" d="M480.39,135.51c-1.84-2.08-2.76-5.09-2.76-9.04v-23.69c0-.61-.22-1.02-.66-1.23-.44-.2-1.31-.3-2.6-.3h-.61c-.34,0-.63-.2-.87-.61-.24-.41-.36-.89-.36-1.43,0-.13.09-.32.25-.56.17-.24.32-.43.46-.56,3.68-2.59,6.7-5.31,9.09-8.17.27-.34.54-.63.82-.87.27-.24.57-.36.92-.36.95,0,1.39.38,1.32,1.12l-.51,4.6v.41c0,.62.21,1.03.62,1.23.41.2,1.02.31,1.83.31h11.64c.27,0,.51.22.71.66.21.44.31.97.31,1.58s-.1,1.21-.31,1.79c-.2.58-.44.87-.71.87h-10.11c-1.84,0-2.98.13-3.42.41-.44.27-.66,1.09-.66,2.45v20.11c0,2.8.58,4.96,1.73,6.49,1.16,1.53,2.82,2.29,5,2.29,1.9,0,3.42-.13,4.54-.41,1.12-.27,2.13-.75,3.01-1.42l.41-.21c.48,0,.72.48.72,1.43,0,.41-.61,1.14-1.84,2.2-1.23,1.06-2.74,1.99-4.54,2.81-1.8.82-3.66,1.23-5.57,1.23-3.41,0-6.03-1.04-7.86-3.11"/>
        <path class="cls-1" d="M510.56,135.97c-3.1-1.77-5.55-4.22-7.35-7.35-1.8-3.13-2.7-6.64-2.7-10.52s1-7.42,3.01-11.03c2.01-3.61,4.73-6.53,8.17-8.78,3.44-2.24,7.16-3.36,11.18-3.36s7.42.93,10.62,2.81c3.2,1.87,5.73,4.39,7.6,7.55,1.88,3.17,2.81,6.55,2.81,10.16,0,4.08-.88,7.9-2.66,11.44-1.77,3.54-4.39,6.38-7.86,8.53-3.47,2.14-7.66,3.22-12.56,3.22-3.75,0-7.17-.89-10.26-2.66M533.48,129.94c1.36-2.65,2.04-6.67,2.04-12.05,0-3.27-.61-6.43-1.84-9.49-1.22-3.06-2.93-5.55-5.1-7.45-2.18-1.9-4.66-2.86-7.45-2.86-1.98,0-3.68.3-5.1.91-1.44.62-2.73,1.67-3.88,3.17-1.23,1.57-2.08,3.49-2.55,5.77-.48,2.28-.71,4.88-.71,7.81,0,3.4.61,6.62,1.83,9.64,1.23,3.03,2.91,5.48,5.05,7.35,2.15,1.88,4.54,2.81,7.2,2.81,5.11,0,8.61-1.87,10.52-5.62M519.59,89.61c0-.47.14-1.09.41-1.84.61-1.63,1.79-4.05,3.52-7.25,1.74-3.2,3.18-5.79,4.34-7.76.34-.54.77-.99,1.28-1.33.51-.34,1-.51,1.48-.51,1.36,0,2.53.19,3.52.56.99.38,1.48.9,1.48,1.58,0,.48-.14.92-.41,1.33-.27.41-.48.68-.61.82-1.16,1.7-2.93,3.97-5.31,6.79-2.38,2.82-4.28,4.95-5.72,6.38-1.43,1.43-2.48,2.15-3.16,2.15-.54,0-.82-.31-.82-.92"/>
        <path class="cls-1" d="M545.83,136.38c0-.48.17-.8.51-.97.34-.17.95-.39,1.83-.66,1.43-.34,2.52-.76,3.27-1.28.75-.51,1.12-1.38,1.12-2.6v-21.95c0-2.18-.24-3.85-.71-5.01-.48-1.15-1.5-1.94-3.06-2.35-.68-.2-1.02-.64-1.02-1.32,0-.75.3-1.15.92-1.23,2.11-.54,3.9-1.22,5.36-2.04,1.47-.82,3.08-1.87,4.85-3.16.48-.34.85-.51,1.12-.51.34,0,.51.24.51.71l-.21,2.14c-.07.55-.13,1.21-.2,1.99-.07.78-.1,1.59-.1,2.4,0,.68.07,1.09.21,1.22,2.45-2.31,5-4.03,7.66-5.16,2.66-1.12,5.58-1.68,8.78-1.68s6.01,1.36,8.22,4.08c2.21,2.73,3.32,6.09,3.32,10.11v21.75c0,1.22.35,2.06,1.07,2.5.71.44,1.82.9,3.32,1.38.81.27,1.41.53,1.79.77.37.24.56.59.56,1.07,0,.61-.68.92-2.04.92-1.84,0-3.3-.1-4.39-.31-1.36-.13-2.62-.21-3.78-.21-1.09,0-2.38.07-3.88.21-1.09.2-2.59.31-4.49.31-1.36,0-2.04-.31-2.04-.92,0-.48.19-.83.56-1.07.37-.24.97-.5,1.78-.77,1.5-.48,2.61-.93,3.32-1.38.71-.45,1.07-1.28,1.07-2.5v-21.44c0-2.93-.84-5.24-2.5-6.95-1.67-1.7-3.9-2.58-6.69-2.65-4.22,0-8,1.37-11.33,4.08-.55.55-.82,1.33-.82,2.35v24.61c0,1.22.37,2.09,1.12,2.6.75.51,1.84.94,3.27,1.28.81.21,1.41.43,1.79.66.37.24.56.56.56.97,0,.75-.68,1.12-2.04,1.12-1.77,0-3.23-.1-4.39-.31-1.49-.13-2.79-.21-3.88-.21s-2.38.07-3.88.21c-1.09.2-2.55.31-4.39.31-1.36,0-2.04-.38-2.04-1.12"/>
        <path class="cls-1" d="M606.84,135.97c-3.1-1.77-5.55-4.22-7.35-7.35-1.81-3.13-2.71-6.64-2.71-10.52s1-7.42,3.01-11.03c2.01-3.61,4.73-6.53,8.17-8.78,3.43-2.24,7.16-3.37,11.18-3.37s7.42.94,10.62,2.81c3.2,1.87,5.73,4.39,7.61,7.55,1.87,3.17,2.81,6.55,2.81,10.16,0,4.08-.89,7.89-2.66,11.44-1.77,3.54-4.39,6.38-7.86,8.53-3.47,2.14-7.66,3.22-12.56,3.22-3.75,0-7.17-.88-10.26-2.65M629.77,129.94c1.36-2.65,2.04-6.67,2.04-12.05,0-3.27-.61-6.43-1.84-9.49-1.23-3.06-2.93-5.55-5.11-7.45-2.18-1.9-4.66-2.86-7.45-2.86-1.98,0-3.68.3-5.1.91-1.43.62-2.73,1.67-3.88,3.17-1.22,1.57-2.08,3.49-2.55,5.77-.48,2.28-.71,4.88-.71,7.81,0,3.4.61,6.62,1.84,9.64,1.23,3.03,2.91,5.48,5.05,7.35,2.15,1.88,4.55,2.81,7.2,2.81,5.11,0,8.61-1.87,10.52-5.62"/>
        <path class="cls-1" d="M642.12,136.38c0-.41.19-.72.56-.92.38-.2.97-.44,1.79-.71,1.5-.48,2.6-.93,3.32-1.38.71-.45,1.07-1.28,1.07-2.5v-21.95c0-2.18-.26-3.88-.77-5.11-.51-1.22-1.55-1.97-3.11-2.24-.61-.13-.92-.58-.92-1.32,0-.68.27-1.09.82-1.23,1.84-.47,3.3-.97,4.39-1.48,1.09-.51,2.34-1.28,3.78-2.3l2.24-1.53c.07,0,.19-.07.36-.2.16-.14.36-.21.56-.21.13,0,.27.07.41.21.13.13.21.3.21.51l-.21,2.14c-.07.55-.14,1.21-.2,1.99-.07.78-.1,1.59-.1,2.4,0,.68.07,1.09.2,1.22h.2c4.7-4.56,10.01-6.84,15.93-6.84,2.52,0,4.59.54,6.23,1.63,1.63,1.09,2.96,2.89,3.98,5.41h.31c5.31-4.7,10.86-7.04,16.64-7.04,3.13,0,5.62,1.41,7.45,4.23,1.83,2.83,2.76,6.15,2.76,9.96v21.75c0,1.22.36,2.06,1.07,2.5.72.44,1.82.9,3.32,1.38.82.27,1.41.52,1.79.71.37.2.56.51.56.92s-.15.7-.46.87c-.31.17-.84.26-1.58.26-1.84,0-3.27-.1-4.29-.31-1.36-.13-2.62-.21-3.78-.21-1.22,0-2.52.07-3.88.21-1.22.2-2.75.31-4.59.31-1.36,0-2.04-.38-2.04-1.12,0-.48.19-.82.56-1.02.37-.21.97-.41,1.79-.62,1.43-.34,2.52-.76,3.27-1.28.75-.51,1.12-1.38,1.12-2.6v-21.44c0-2.52-.82-4.77-2.45-6.74-1.63-1.97-3.54-2.96-5.71-2.96-3.61,0-6.57.92-8.88,2.75-1.91,1.5-2.86,3.95-2.86,7.36v21.03c0,1.22.41,2.09,1.23,2.6.81.51,1.94.94,3.37,1.28,1.57.34,2.35.89,2.35,1.63s-.68,1.12-2.04,1.12c-1.84,0-3.34-.1-4.49-.31-1.5-.13-2.8-.21-3.88-.21-1.22,0-2.51.07-3.88.21-1.23.2-2.76.31-4.59.31-1.37,0-2.05-.38-2.05-1.12,0-.41.15-.7.46-.87.3-.17.65-.32,1.02-.46.37-.13.66-.24.87-.31,1.56-.48,2.71-.93,3.42-1.38.72-.45,1.07-1.28,1.07-2.5v-21.44c0-2.52-.82-4.77-2.45-6.74-1.63-1.97-3.54-2.96-5.72-2.96-3.61,0-6.56.92-8.88,2.75-1.84,1.36-2.76,3.81-2.76,7.36v21.03c0,1.22.36,2.06,1.07,2.5.72.44,1.82.9,3.32,1.38.2.07.53.17.97.31.44.14.78.31,1.02.51.24.2.36.48.36.82,0,.75-.68,1.12-2.05,1.12-1.77,0-3.23-.1-4.39-.31-1.5-.13-2.79-.21-3.88-.21s-2.39.07-3.88.21c-1.09.2-2.56.31-4.39.31-1.37,0-2.05-.38-2.05-1.12"/>
        <path class="cls-1" d="M723.29,137.24c-1.3-.92-2.37-2.07-3.22-3.47-.85-1.39-1.28-2.71-1.28-3.93,0-2.11.56-3.78,1.69-5,1.12-1.22,2.98-2.38,5.56-3.47l10.41-4.29c1.3-.54,2.08-1.02,2.35-1.43.27-.41.44-1.29.51-2.66l.2-6.54c.07-1.84-.44-3.38-1.53-4.65-1.09-1.26-2.59-1.89-4.49-1.89-1.02,0-2.04.17-3.06.51-1.02.34-1.87.78-2.55,1.33-.68.48-1.02,1.46-1.02,2.96l.1,1.84c0,.54-.86,1.28-2.6,2.2-1.73.92-3.11,1.38-4.13,1.38-.34,0-.61-.09-.82-.26-.2-.17-.31-.39-.31-.67,0-1.09.35-2.26,1.07-3.52.71-1.26,1.72-2.43,3.01-3.52,2.31-2.11,4.91-3.85,7.81-5.21,2.89-1.36,5.36-2.04,7.41-2.04,2.45,0,4.47.87,6.07,2.6,1.6,1.73,2.37,3.9,2.3,6.48l-.51,24.51c-.07,1.43.24,2.59.92,3.47.68.89,1.6,1.33,2.76,1.33,1.7,0,2.96-.37,3.78-1.12.34-.34.61-.51.81-.51.34,0,.61.1.82.3.21.21.31.48.31.82,0,.27-.1.63-.31,1.07-.2.44-.48.83-.82,1.17-1.09,1.09-2.26,1.96-3.52,2.6-1.26.65-2.44.97-3.53.97-3.13,0-5.61-1.77-7.45-5.31h-.31c-2.25,1.84-4.39,3.18-6.43,4.03-2.04.85-4.15,1.28-6.33,1.28-1.15,0-2.38-.46-3.67-1.38M737.79,131.27c.41-.41.71-.92.92-1.53.2-.61.34-1.5.41-2.66l.2-5v-.61c0-.54-.07-.94-.2-1.17-.14-.24-.38-.36-.71-.36-.41,0-1.09.17-2.05.51-3.4,1.23-5.85,2.52-7.35,3.88-1.5,1.36-2.24,2.69-2.24,3.98,0,1.71.49,3.03,1.48,3.98.99.95,2.16,1.43,3.52,1.43,2.38,0,4.39-.82,6.03-2.45"/>
        <path class="cls-1" d="M380.29,177.8c-2.99-.14-5.2-.21-6.61-.21-.47,0-1.08.03-1.84.08-.6.08-1.42.12-2.45.12-.79,0-1.19-.18-1.19-.53,0-.22.08-.35.25-.41.16-.05.53-.13,1.1-.24,1.04-.19,1.75-.5,2.15-.94.39-.43.59-1.15.59-2.12v-18.38c0-.95-.2-1.64-.59-2.07-.39-.42-1.11-.72-2.15-.92-.52-.09-.87-.17-1.06-.27-.19-.09-.29-.25-.29-.47,0-.35.39-.53,1.19-.53l2.33.04c.41.03,1.14.04,2.2.04,1.12,0,2.52-.07,4.21-.2.57-.03,1.09-.06,1.57-.08.47-.03.88-.04,1.2-.04,3.54,0,6.47.57,8.78,1.69,2.32,1.13,4.01,2.67,5.09,4.62,1.07,1.95,1.61,4.16,1.61,6.64s-.64,4.94-1.92,7.13c-1.28,2.2-3.01,3.93-5.19,5.21-2.18,1.28-4.55,1.92-7.11,1.92l-1.88-.08ZM387.3,174.89c1.65-1.03,2.93-2.47,3.84-4.31.92-1.84,1.37-3.93,1.37-6.27,0-2.5-.55-4.7-1.64-6.57-1.09-1.88-2.51-3.32-4.27-4.31-1.76-.99-3.59-1.49-5.5-1.49-1.44,0-2.53.04-3.25.13-.72.08-1.29.3-1.7.65-.41.35-.62.93-.62,1.71v18.22c0,1.49.55,2.5,1.66,3.02,1.1.52,2.6.77,4.47.77,2.1,0,3.97-.52,5.62-1.55"/>
        <path class="cls-1" d="M403.41,177.35c0-.19.11-.34.33-.45.22-.11.56-.2,1.02-.28,1.06-.19,1.83-.51,2.31-.96.48-.45.71-1.15.71-2.1v-18.38c0-.95-.2-1.64-.59-2.07-.39-.42-1.11-.72-2.14-.92-.9-.16-1.35-.44-1.35-.82,0-.3.4-.45,1.19-.45,1.03,0,2.29.03,3.76.08l3.47.04,5.6-.04,3.47-.08c.46,0,.71.12.73.37.06.22.17.81.35,1.8.18.98.27,1.78.27,2.41,0,.41-.19.61-.57.61-.14,0-.23-.02-.29-.08-.06-.06-.11-.17-.16-.33-.06-.13-.16-.49-.33-1.06-.16-.57-.35-.97-.57-1.19-.66-.74-1.57-1.11-2.74-1.11h-5.35c-.28,0-.59.13-.94.39-.35.26-.53.56-.53.91v8.66c0,.25.07.45.22.63.15.18.32.27.51.27h4.04c.76,0,1.29-.14,1.59-.41.3-.27.56-.8.77-1.59.16-.6.41-.9.74-.9.11,0,.23.06.35.19.12.12.18.28.18.47l-.04,1.06-.08,1.8.04,2.17.04.98c0,.47-.13.7-.37.7-.4,0-.72-.44-.94-1.31-.16-.65-.39-1.13-.67-1.41-.29-.28-.69-.42-1.21-.42h-3.8c-.52,0-.88.07-1.08.2-.2.14-.31.42-.31.86v7.84c0,1.01.21,1.71.63,2.12.42.41,1.11.61,2.06.61h3.02c.9,0,1.64-.05,2.23-.16.58-.11,1.08-.29,1.49-.53.41-.27.78-.65,1.12-1.12.34-.48.74-1.15,1.21-2.03.19-.35.38-.52.58-.52.35,0,.53.19.53.57,0,.35-.15,1.1-.45,2.22-.3,1.13-.58,1.97-.82,2.51-.03.05-.07.15-.12.29-.06.14-.12.24-.19.31-.06.07-.15.1-.26.1-.55,0-2.94-.04-7.19-.12-1.88-.08-3.75-.12-5.6-.12-.77,0-1.47.04-2.12.12-1.39.08-2.25.12-2.57.12-.79,0-1.19-.15-1.19-.45"/>
        <path class="cls-1" d="M430.43,177.65c-.2-.1-.3-.21-.3-.35,0-.33.3-.56.9-.69,1.12-.22,1.95-.54,2.49-.98.54-.44.81-1.09.81-1.96v-18.96c0-.65-.06-1.14-.2-1.45-.13-.31-.36-.53-.67-.67-.31-.13-.85-.27-1.61-.41-.9-.16-1.35-.44-1.35-.82,0-.3.39-.45,1.18-.45s1.66.03,2.54.08l2.04.04,2.45-.04c1.04-.06,1.94-.08,2.7-.08s1.19.15,1.19.45c0,.39-.45.66-1.35.82-1.28.25-2.21.51-2.78.78-.57.27-.86.76-.86,1.47v19.24c0,.9.2,1.54.61,1.91.41.39,1.25.57,2.53.57h5.07c.68,0,1.31-.1,1.88-.32.57-.22,1.01-.46,1.31-.74.54-.46.95-.88,1.2-1.25.26-.37.56-.92.92-1.65.11-.27.25-.55.41-.82.17-.27.33-.41.49-.41s.28.07.37.23c.08.15.12.32.12.51l-.04.2c-.35,1.31-.61,2.31-.75,3-.15.69-.27,1.42-.35,2.18-.06.46-.25.7-.57.7-2.92,0-5.6-.04-8.05-.12-2.78-.06-4.77-.08-5.96-.08-.84,0-1.88.03-3.11.08-1.22.05-2.03.09-2.41.12-.35,0-.63-.05-.84-.14"/>
        <path class="cls-1" d="M478.62,176.47c-2.26-1.16-4.08-2.79-5.45-4.88-1.38-2.1-2.06-4.49-2.06-7.19s.72-4.94,2.16-7.05c1.44-2.11,3.38-3.78,5.8-5.01,2.42-1.22,5.02-1.83,7.8-1.83,1.42,0,2.57.08,3.45.22.88.15,2.15.43,3.82.84.38.11.66.27.84.49.17.22.29.51.35.9.21,2.12.34,3.69.37,4.69.03.17-.04.31-.18.43-.15.12-.32.18-.51.18-.35,0-.59-.19-.69-.57-.3-1.17-.63-2.1-1-2.8-.37-.7-.88-1.27-1.53-1.74-.68-.44-1.51-.78-2.47-1.02-.97-.24-2.01-.37-3.12-.37-2.07,0-3.94.54-5.6,1.63-1.66,1.09-2.97,2.53-3.92,4.31-.95,1.78-1.43,3.68-1.43,5.69,0,2.27.48,4.43,1.43,6.52.95,2.08,2.28,3.77,3.98,5.06,1.7,1.29,3.64,1.94,5.82,1.94,1.88,0,3.46-.43,4.76-1.28,1.29-.86,2.41-2.13,3.37-3.82.08-.16.21-.29.37-.39.17-.1.31-.14.45-.14.16,0,.3.05.41.16.11.11.16.27.16.49,0,.33-.12.92-.37,1.78-.24.86-.48,1.59-.73,2.18-.22.38-.38.63-.49.74-.11.1-.38.23-.82.37-.96.38-2.13.67-3.52.88-1.39.2-2.79.31-4.21.31-2.56,0-4.97-.58-7.23-1.73"/>
        <path class="cls-1" d="M502.55,177.65c-.22-.1-.33-.23-.33-.39,0-.35.45-.67,1.35-.94.79-.25,1.47-.59,2.04-1.04.57-.45,1.07-1.15,1.47-2.11,1.45-3.32,2.7-6.34,3.78-9.05,1.08-2.71,2.37-6.09,3.87-10.15.29-.85.48-1.64.57-2.37.08-.03.28-.09.59-.19.31-.1.61-.24.88-.43.22-.16.39-.41.51-.74.13-.32.21-.54.27-.65.03-.03.06-.03.1-.02.04.02.07.04.1.06.06.14.1.29.14.45.04.16.09.32.14.45,2.02,6.35,4.44,13.62,7.27,21.81.52,1.5,1.09,2.51,1.72,3.05.62.53,1.43.88,2.41,1.04.43.08.77.21,1,.39.23.18.35.36.35.55,0,.27-.4.41-1.18.41l-2.21-.09c-1.53-.11-2.68-.16-3.47-.16l-4.29.04c-.79,0-1.19-.16-1.19-.49,0-.16.13-.32.39-.47.26-.15.58-.26.96-.31,1.66-.27,2.5-.89,2.5-1.84,0-.87-.53-3.08-1.6-6.62-.06-.19-.16-.31-.31-.37-.15-.06-.42-.08-.8-.08h-7.72c-.3,0-.53.25-.7.73-.3.88-.65,2.01-1.06,3.41-.41,1.4-.61,2.22-.61,2.47,0,.57.23,1.07.67,1.48.45.41,1.01.69,1.7.86.49.14.83.26,1.04.37.2.11.31.26.31.45,0,.3-.39.45-1.19.45-.49,0-.9-.01-1.23-.04l-2.49-.04c-.46,0-.97.02-1.53.06-.55.04-.98.06-1.24.06-.76.08-1.47.12-2.12.12-.36,0-.64-.05-.86-.14M519.3,166.07c.16,0,.3,0,.41-.04.11-.02.16-.08.16-.16l-.08-.4-3.19-9.97c-.16-.49-.28-.74-.36-.74-.06,0-.17.23-.33.7l-3.72,10.01-.08.33c0,.14.06.22.18.24.12.04.35.04.67.04h6.33Z"/>
        <path class="cls-1" d="M541.69,175.39c-1.88-1.85-2.82-4.38-2.82-7.6v-12.54c0-.9-.18-1.59-.53-2.06-.35-.48-.8-.79-1.35-.93-.9-.24-1.35-.54-1.35-.9,0-.29.39-.44,1.18-.44l1.76.04c.87.06,1.59.08,2.16.08l1.96-.04c.32-.03.76-.04,1.31-.04.79,0,1.19.15,1.19.45,0,.17-.1.3-.29.41-.19.11-.55.25-1.06.41-.38.11-.76.44-1.14,1-.38.56-.57,1.21-.57,1.94v11.48c0,3.16.78,5.53,2.33,7.1,1.55,1.59,3.64,2.37,6.25,2.37s4.76-.94,6.11-2.84c1.35-1.89,2.02-4.49,2.02-7.78,0-1.66-.05-4.59-.16-8.78-.03-1.15-.18-2.13-.45-2.96-.27-.83-.68-1.33-1.23-1.49-.9-.24-1.35-.51-1.35-.81s.4-.45,1.19-.45l3.07.04c.52,0,1.15-.03,1.92-.08l1.39-.04c.79,0,1.19.15,1.19.44,0,.36-.45.63-1.35.82-1.28.25-1.96,1.27-2.05,3.07-.1,1.66-.18,3.35-.22,5.08-.04,1.73-.08,2.89-.1,3.49,0,.79-.03,1.97-.08,3.56-.06,2.07-.55,3.93-1.51,5.58-.96,1.64-2.24,2.92-3.84,3.84-1.61.91-3.4,1.37-5.4,1.37-3.56,0-6.29-.92-8.17-2.78"/>
        <path class="cls-1" d="M578.29,176.47c-2.26-1.16-4.08-2.79-5.45-4.88-1.38-2.1-2.07-4.49-2.07-7.19s.72-4.94,2.17-7.05c1.44-2.11,3.38-3.78,5.8-5.01,2.42-1.22,5.02-1.83,7.8-1.83,1.41,0,2.57.08,3.45.22.88.15,2.16.43,3.82.84.38.11.66.27.84.49.17.22.29.51.35.9.22,2.12.34,3.69.37,4.69.03.17-.04.31-.19.43-.15.12-.32.18-.51.18-.36,0-.59-.19-.7-.57-.3-1.17-.63-2.1-1-2.8-.37-.7-.88-1.27-1.53-1.74-.68-.44-1.5-.78-2.47-1.02-.97-.24-2.01-.37-3.13-.37-2.07,0-3.94.54-5.6,1.63-1.66,1.09-2.97,2.53-3.92,4.31-.95,1.78-1.43,3.68-1.43,5.69,0,2.27.48,4.43,1.43,6.52.95,2.08,2.28,3.77,3.98,5.06,1.7,1.29,3.64,1.94,5.82,1.94,1.88,0,3.47-.43,4.76-1.28,1.29-.86,2.42-2.13,3.37-3.82.08-.16.21-.29.37-.39.16-.1.31-.14.45-.14.16,0,.3.05.41.16.1.11.16.27.16.49,0,.33-.12.92-.37,1.78-.24.86-.49,1.59-.73,2.18-.22.38-.38.63-.49.74-.11.1-.38.23-.82.37-.96.38-2.12.67-3.52.88-1.38.2-2.79.31-4.2.31-2.56,0-4.97-.58-7.23-1.73"/>
        <path class="cls-1" d="M602.23,177.65c-.22-.1-.33-.23-.33-.39,0-.35.45-.67,1.35-.94.79-.25,1.47-.59,2.04-1.04.58-.45,1.06-1.15,1.47-2.11,1.44-3.32,2.7-6.34,3.78-9.05,1.08-2.71,2.36-6.09,3.86-10.15.3-.85.49-1.64.58-2.37.08-.03.28-.09.59-.19.31-.1.61-.24.88-.43.22-.16.39-.41.51-.74.12-.32.21-.54.26-.65.03-.03.06-.03.1-.02.04.02.07.04.1.06.06.14.1.29.14.45.04.16.09.32.14.45,2.02,6.35,4.44,13.62,7.27,21.81.52,1.5,1.09,2.51,1.72,3.05.62.53,1.43.88,2.41,1.04.44.08.77.21,1,.39.23.18.35.36.35.55,0,.27-.39.41-1.19.41l-2.2-.09c-1.53-.11-2.68-.16-3.47-.16l-4.29.04c-.79,0-1.18-.16-1.18-.49,0-.16.13-.32.39-.47.26-.15.58-.26.96-.31,1.66-.27,2.49-.89,2.49-1.84,0-.87-.54-3.08-1.6-6.62-.05-.19-.16-.31-.3-.37-.15-.06-.42-.08-.8-.08h-7.72c-.3,0-.53.25-.7.73-.3.88-.66,2.01-1.06,3.41-.41,1.4-.61,2.22-.61,2.47,0,.57.22,1.07.67,1.48.45.41,1.01.69,1.7.86.49.14.84.26,1.04.37.2.11.3.26.3.45,0,.3-.4.45-1.19.45-.49,0-.9-.01-1.23-.04l-2.49-.04c-.46,0-.97.02-1.53.06-.56.04-.97.06-1.25.06-.76.08-1.46.12-2.12.12-.36,0-.64-.05-.86-.14M618.98,166.07c.16,0,.3,0,.41-.04.11-.02.16-.08.16-.16l-.08-.4-3.19-9.97c-.16-.49-.28-.74-.37-.74-.06,0-.16.23-.33.7l-3.72,10.01-.08.33c0,.14.06.22.18.24.12.04.35.04.67.04h6.34Z"/>
      </g>
      <path class="cls-1" d="M221.5,184.84c-1.38-.65-14.21-6.93-20.29-18.56-2.45-4.68-5.26-11.88-5.37-20.25.77-5.59.22-11.77.18-12.67,11.81-13.34,9.59-27.88,9.45-29.29,3.05-3.35,9.48-11.93,9.48-24.78,0-17.03-11.6-27.15-11.6-27.15,2.43-2.01,5.45-3.11,8.6-3.11,5.9,0,11.07,3.77,12.87,9.39l2.31,7.22,4.79-5.88c4.81-5.9,7.46-13.35,7.46-20.97,0-18.32-14.91-33.23-33.23-33.23h-61.05s7.14,5.44,7.14,8.71c0,5.36-5.84,11.97-6.86,17.25-2.53,2.79-9.95,11.98-9.95,23.61,0,2.17.11,4.17.33,6.12-2.33,2.85-7.15,9.37-8.95,16.33-1.39-1.57-2.93-3.13-4.61-4.63-.09-4.94-1.75-16.65-14.27-27.29-1.13-24.09-22.83-35.31-37.23-35.31H23.46c-9.52,0-16.61-5.2-16.68-5.26L0,0l.2,8.47c.38,15.95,8.14,24.86,14.72,29.58.57,5.45,3.02,18.05,13.6,26.62.31,3.46,1.35,9.89,4.93,16.42,4.64,8.5,14.49,18.63,35.02,18.7l11.2.04c3.13,8.53,9.46,15.62,17.53,19.68-19.48,16.86-32.01,43.93-32.01,69.32,0,3.5.22,7.07.66,10.64-19.51-2.42-34.09-18.86-34.09-38.65,0-7.16,1.97-13.93,5.42-19.77l5.63,1.16,3.76-18.1-17.56,5.8,1.82,5.51.06.06c-4.68,7.36-7.34,16.07-7.34,25.35,0,24.74,19.17,45.28,43.76,47.04.48,2.14,1.02,4.21,1.61,6.16v3.78h85.68c2.36-13.55-3.53-23.52-10.47-29.11.15-.36.3-.72.44-1.09,19.42-1.06,28.03,14.58,26.15,30.2h4.11s63.67.01,63.67.01l.16-3.95c.7-17.72-10.89-26.74-17.11-29.03M206.14,13.78c13.79,0,25.01,11.22,25.01,25.01,0,3.5-.75,7.01-2.19,10.22-4.09-5.16-10.35-8.19-17.02-8.19-5.35,0-10.44,1.95-14.44,5.5l-16.85-16.85-15.58-15.68h41.07ZM153.28,33.98c.05-2.59,3.95-6.67,5.9-14.36l38.99,38.97h0c9.21,9.2,11.34,22.63,4.55,35.33-1.09-3.23-3.97-7.93-6.66-10.63-2.45-2.45-35.17-35.25-37.97-38.05-3.48-3.49-4.89-7.11-4.82-11.27M146.91,43.47c1.16,2.75,3.79,6,5.39,7.59,0,0,11.22,11.25,19.24,19.28,7.89,7.92,15.72,15.77,18.73,18.77,9.03,9.04,8.79,24.94,3.32,33.66,0,0-1.24-4.94-9.92-13.62l-30.66-30.66c-11.38-11.38-11.03-26.29-6.09-35.02M138.35,71.7c1.94,5.11,5.73,9.38,8.83,12.6l30.67,30.66c12.2,12.21,14.93,29.97,3.46,41.44-2.15-8.56-6.41-16.55-12.37-23.19l-26.09-26.53c-13.66-13.66-8.37-29.75-4.49-34.99M9.32,15.69c3.51,1.42,8.45,2.86,14.14,2.86h47.24c7.65,0,24.21,5.32,28.2,21.6-4.7-1.77-10.15-2.7-16.58-2.7h-44.81c-2.86,0-9.97-1.08-16.42-5.17-6.14-3.88-10.09-9.46-11.76-16.6M24.21,42.95s6.85,2.72,13.3,2.72h44.81c20.53,0,26.39,11.1,30.74,21.57-1.26-.46-8.24-2.69-15.71-2.69-.05,0-8.75.02-43.24.02-20.55,0-27.02-12.38-29.89-21.64M68.5,91.58c-21.31-.07-28.38-12.9-30.72-21.58.14.06,6.84,2.81,16.33,2.81q43.17,0,43.17-.02c14.5,0,24.4,7.86,29.37,20.33-3.98-1.1-7.32-1.41-13.77-1.41-1.16,0-44.37-.13-44.37-.13M146.72,209.59h-70.54c-1.84-6.73-2.77-13.71-2.77-20.75,0-24.77,13.21-51.28,32.89-66.12,19.89,5.7,33.75,24.13,33.75,44.96,0,5.8-1.04,11.43-3.1,16.77-3.54-1.47-7.27-2.22-11.12-2.22h0c-2.3,0-4.14,1.84-4.14,4.11s1.95,4.11,4.11,4.11c10.88,0,19.98,8.35,20.93,19.14M178.93,209.6c-.96-16.99-14.8-30.2-31.89-30.32.81-3.77,1.22-7.67,1.22-11.59,0-25.47-17.21-47.45-41.84-53.44-7.64-1.93-14.21-7.26-17.78-14.38,18.87.06,24.25.06,24.32.06h.16c.32-.01.7-.03,1.12-.03,5.14,0,12.33.92,15.88,3.51,1.7,3.16,4.06,6.29,6.92,9.09,18.38,18.03,37.45,34.48,37.45,52.39,0,20.27,28.27,29.96,28.27,44.72h-23.83ZM211,209.6c-.91-11.2-5.74-15.79-11.31-21.08,0,0-16.85-13.94-16.85-21.75,1.88-1.79,4.41-4.41,6.74-7.57,2.22,7.42,6.35,15.84,12.4,21.7,6.24,6.04,12.87,9.74,17.99,12.15,4.45,2.1,10.31,9.14,10.31,16.55h-19.29ZM186.88,26.49c-2.27,0-4.11-1.85-4.11-4.11s1.84-4.11,4.13-4.11h11.39c2.27,0,4.11,1.84,4.11,4.11s-1.84,4.11-4.13,4.11"/>
      <g>
        <g>
          <path class="cls-1" d="M363.22,203.47c-2.1.27-2.56.49-4.24,3.26-1.92,3.11-7.28,12.04-9.57,16h-.98c-.7-5.4-1.83-13.04-2.41-16.61-.37-2.32-.76-2.44-2.71-2.65l.21-.85h7.44l-.24.85-.79.12c-1.19.18-1.61.43-1.49,1.52.21,2.1,1.16,8.23,1.92,13.59,2.19-3.6,6.16-10.3,7.62-12.98.91-1.68.43-1.98-.97-2.16l-.76-.09.24-.85h6.92l-.18.85Z"/>
          <path class="cls-1" d="M368.09,219.77c-1.52,2.04-3.44,3.02-4.36,3.02-.79,0-1.13-.79-.55-3.23.49-2.01,1.34-5.27,1.92-7.74.12-.58.09-.85-.09-.85-.31,0-1.22.61-2.01,1.37l-.4-.79c1.43-1.55,3.51-2.87,4.48-2.87.76,0,.79,1.04.24,3.29-.58,2.19-1.31,5.27-1.86,7.44-.21.82-.21,1.16,0,1.16.3,0,1.13-.43,2.19-1.55l.43.76ZM368.95,203.8c0,.95-.67,1.77-1.62,1.77-.76,0-1.34-.55-1.34-1.37s.61-1.8,1.71-1.8c.82,0,1.25.64,1.25,1.4Z"/>
          <path class="cls-1" d="M375.28,218.74c-.49.46-.79.76-.79,1.13,0,.49.61,1.04,2.44,1.92,3.35,1.55,4.27,2.56,4.27,3.9,0,2.56-4.3,4.75-7.38,4.75s-5.7-1.59-5.7-3.54c.03-1.28,1.8-2.62,5.18-4.57-.79-.49-1.07-1.04-1.04-1.46,0-.52.73-1.34,2.1-2.19l.91.06ZM378.91,226.69c0-.64-.27-1.34-1.46-2.07-1.19-.73-2.62-1.43-3.32-1.74-2.41,1.34-3.44,2.47-3.44,3.54,0,1.58,2.04,2.71,4.33,2.71,2.41,0,3.9-1.19,3.9-2.44ZM371.53,215.26c0-2.38,1.34-4.48,3.02-5.49,1.13-.7,2.5-1.1,3.35-1.1.98,0,1.89.24,2.59.82,1.74,0,2.83-.34,3.41-.7l.21.7c-.88,1.07-1.89,1.37-2.83,1.49.09.43.18.85.18,1.4,0,2.19-1.07,3.87-2.13,4.72-1.28,1.07-2.99,1.8-4.6,1.77-2.1-.03-3.2-1.71-3.2-3.63ZM379.19,212.76c0-1.89-.76-2.96-2.1-2.96-1.8,0-3.23,2.35-3.23,5.06,0,1.83.88,2.8,2.01,2.8,1.86,0,3.32-2.16,3.32-4.91Z"/>
          <path class="cls-1" d="M391.31,219.77c-1.52,2.04-3.44,3.02-4.36,3.02-.79,0-1.13-.79-.55-3.23.49-2.01,1.34-5.27,1.92-7.74.12-.58.09-.85-.09-.85-.31,0-1.22.61-2.01,1.37l-.4-.79c1.43-1.55,3.51-2.87,4.48-2.87.76,0,.79,1.04.24,3.29-.58,2.19-1.31,5.27-1.86,7.44-.21.82-.21,1.16,0,1.16.3,0,1.13-.43,2.19-1.55l.43.76ZM392.17,203.8c0,.95-.67,1.77-1.62,1.77-.76,0-1.34-.55-1.34-1.37s.61-1.8,1.71-1.8c.82,0,1.25.64,1.25,1.4Z"/>
          <path class="cls-1" d="M400.18,219.65c-1.52,2.04-3.54,3.14-4.42,3.14-.76,0-1.22-.61-.61-3.53,1.1-5.21,2.29-10.73,3.26-15.42.24-1.22.15-1.34-.95-1.43-.33-.03-.88-.09-1.13-.09l.18-.79c1.31-.15,2.86-.46,3.72-.76.55-.21.73-.24.91-.24.27,0,.27.27.12.98-1.37,5.85-2.87,12.8-3.87,17.89-.18.85-.15,1.13.09,1.13.27,0,1.13-.43,2.23-1.62l.46.76Z"/>
          <path class="cls-1" d="M416.27,219.68c-1.49,2.01-3.38,3.11-4.24,3.11s-1.22-.7-.67-3.47l.43-2.1c-1.13,1.86-2.74,3.38-3.66,4.11-.97.79-2.13,1.46-3.14,1.46-1.07,0-1.95-1.31-1.95-3.78,0-2.87,1.31-6.03,3.38-7.93,1.59-1.46,3.78-2.41,5.82-2.41,1.55,0,2.96.46,3.54.52-.55,1.92-1.62,6.61-2.19,10.06-.15.85-.09,1.19.15,1.19.37,0,1.01-.4,2.1-1.52l.43.76ZM410.75,217.15c.67-.85,1.46-2.38,1.77-3.66.31-1.16.58-2.25.67-2.99-.43-.21-1.43-.49-2.32-.49-3.6,0-5.27,4.63-5.27,8.6,0,1.22.33,2.01.95,2.01.94,0,2.29-.94,4.2-3.47Z"/>
          <path class="cls-1" d="M432.88,219.77c-1.49,1.95-3.41,3.05-4.27,3.05s-1.28-.73-.67-3.63l.37-1.71c-1.77,2.59-4.63,5.33-6.8,5.33-1.19,0-2.32-1.07-2.32-3.93,0-2.71,1.25-6.07,3.57-8.02,1.31-1.16,3.69-2.16,5.09-2.16.7,0,1.62.09,2.23.4l1.07-5.24c.24-1.22.03-1.34-1.1-1.43-.3-.03-.94-.06-1.16-.06l.18-.82c1.43-.15,2.96-.49,3.87-.79.46-.12.7-.21.88-.21.24,0,.3.27.15.91-1.4,6-2.83,12.34-3.87,17.98-.15.82-.03,1.16.18,1.16.37,0,1.13-.46,2.23-1.61l.37.79ZM427.64,216.85c.61-.85,1.1-1.77,1.43-3.23l.61-2.62c-.43-.49-1.46-.95-2.93-.95-3.51,0-5,5.03-5,8.17,0,1.71.46,2.59,1.28,2.59,1.25,0,3.05-1.71,4.6-3.96Z"/>
          <path class="cls-1" d="M485.78,203.47c-2.62.24-2.77.34-3.17,2.87-.64,4.36-1.07,7.96-1.59,11.95-.4,2.96-.12,3.08,2.44,3.29l-.21.85h-7.98l.21-.85c2.44-.24,2.62-.34,3.08-3.29.64-4.42,1.22-8.47,1.89-12.8h-.09c-3.35,5.61-8.44,14.11-9.97,16.95h-.7c-.49-3.14-2.41-10.82-3.6-16.64h-.06l-2.01,8.35c-.73,3.08-1.07,4.48-1.22,5.52-.21,1.34.09,1.71,2.44,1.92l-.21.85h-7.16l.21-.85c2.07-.15,2.59-.58,3.02-1.86.55-1.59,1.19-3.69,2.01-6.92l1.46-5.85c.76-2.99.73-3.11-2.22-3.47l.24-.85h5.12c1.01,4.69,2.62,10.36,3.78,15.48l9.45-15.48h5.06l-.21.85Z"/>
          <path class="cls-1" d="M492.48,219.77c-1.52,2.04-3.44,3.02-4.36,3.02-.79,0-1.13-.79-.55-3.23.49-2.01,1.34-5.27,1.92-7.74.12-.58.09-.85-.09-.85-.31,0-1.22.61-2.01,1.37l-.4-.79c1.43-1.55,3.51-2.87,4.48-2.87.76,0,.79,1.04.24,3.29-.58,2.19-1.31,5.27-1.86,7.44-.21.82-.21,1.16,0,1.16.3,0,1.13-.43,2.19-1.55l.43.76ZM493.34,203.8c0,.95-.67,1.77-1.62,1.77-.76,0-1.34-.55-1.34-1.37s.61-1.8,1.71-1.8c.82,0,1.25.64,1.25,1.4Z"/>
          <path class="cls-1" d="M509.67,219.68c-1.61,2.13-3.47,3.11-4.36,3.11-.82,0-1.25-.73-.67-3.23.55-2.16,1.07-4.33,1.52-6.25.49-1.98.37-2.65-.4-2.65-1.01,0-3.35,1.71-5.43,4.88-.55.82-.79,1.61-1.04,2.56-.3,1.19-.7,2.83-.94,4.08-.76.15-1.59.4-2.16.61l-.21-.21c.85-3.32,1.74-7.04,2.5-10.42.21-.94.09-1.22-.15-1.22-.34,0-1.1.67-1.86,1.4l-.43-.79c1.4-1.77,2.99-2.87,3.99-2.87.88,0,1.13,1.07.49,3.72l-.43,1.8c2.71-3.54,5.45-5.52,7.28-5.52,1.01,0,1.95.7.97,4.79-.4,1.68-.97,4.02-1.43,5.94-.18.82-.18,1.19.03,1.19.27,0,1.16-.49,2.26-1.65l.46.73Z"/>
          <path class="cls-1" d="M516.53,222.79c-1.46,0-3.44-.85-3.44-4.54,0-2.83,1.22-6.22,3.63-7.98,1.37-.97,2.8-1.59,4.11-1.59,1.74,0,2.71,1.1,2.71,2.44,0,3.05-4.48,4.48-7.89,5.09-.03.37-.06.97-.06,1.28,0,1.77.49,3.47,2.38,3.47,1.37,0,3.02-.85,4.51-2.41l.46.76c-2.47,2.87-4.88,3.47-6.4,3.47ZM515.76,215.2c4.42-.79,5.46-2.19,5.49-3.6,0-1.04-.61-1.62-1.59-1.62-.91,0-3.02.67-3.9,5.21Z"/>
          <path class="cls-1" d="M539.78,219.77c-1.49,1.95-3.41,3.05-4.27,3.05s-1.28-.73-.67-3.63l.37-1.71c-1.77,2.59-4.63,5.33-6.8,5.33-1.19,0-2.32-1.07-2.32-3.93,0-2.71,1.25-6.07,3.57-8.02,1.31-1.16,3.69-2.16,5.09-2.16.7,0,1.62.09,2.23.4l1.07-5.24c.24-1.22.03-1.34-1.1-1.43-.3-.03-.94-.06-1.16-.06l.18-.82c1.43-.15,2.96-.49,3.87-.79.46-.12.7-.21.88-.21.24,0,.3.27.15.91-1.4,6-2.83,12.34-3.87,17.98-.15.82-.03,1.16.18,1.16.37,0,1.13-.46,2.23-1.61l.37.79ZM534.53,216.85c.61-.85,1.1-1.77,1.43-3.23l.61-2.62c-.43-.49-1.46-.95-2.93-.95-3.51,0-5,5.03-5,8.17,0,1.71.46,2.59,1.28,2.59,1.25,0,3.05-1.71,4.6-3.96Z"/>
          <path class="cls-1" d="M556.72,219.65c-1.49,2.07-3.47,3.11-4.33,3.11-.79,0-1.16-.73-.67-3.26.24-1.16.4-1.83.55-2.5-1.25,1.71-2.71,3.29-4.24,4.48-.95.7-2.04,1.28-2.96,1.28-.98,0-2.07-.64-1.22-4.39.46-1.89,1.01-4.15,1.52-6.28.24-.91.21-1.19-.03-1.19-.33,0-1.22.64-1.98,1.4l-.43-.76c1.46-1.61,3.44-2.87,4.39-2.87.85,0,.88.95.34,3.29-.52,2.01-1.07,4.21-1.49,6.07-.46,2.07-.27,2.65.33,2.65,1.07,0,2.87-1.59,4.42-3.57.91-1.16,1.77-2.62,2.22-4.42.18-.7.49-1.95.73-3.26.61-.18,1.55-.52,2.19-.79h.33c-.91,3.53-2.04,8.17-2.5,10.79-.09.73,0,1.04.21,1.04.27,0,1.01-.37,2.13-1.55l.46.73Z"/>
          <path class="cls-1" d="M569.43,219.44c-1.86,2.13-4.05,3.35-6.16,3.35s-3.44-1.61-3.44-4.51c0-2.53,1.04-5.43,3.11-7.31,1.43-1.34,3.41-2.29,4.85-2.29,1.34,0,2.35.7,2.38,1.4.03.58-.43,1.37-1.04,1.59-.27.12-.46.09-.7-.18-.7-.85-1.37-1.31-2.32-1.31-2.32,0-3.72,3.84-3.72,7.44,0,2.23.85,3.35,2.25,3.35,1.62,0,3.41-1.37,4.33-2.32l.46.79Z"/>
          <path class="cls-1" d="M585.52,219.68c-1.49,2.01-3.38,3.11-4.24,3.11s-1.22-.7-.67-3.47l.43-2.1c-1.13,1.86-2.74,3.38-3.66,4.11-.97.79-2.13,1.46-3.14,1.46-1.07,0-1.95-1.31-1.95-3.78,0-2.87,1.31-6.03,3.38-7.93,1.59-1.46,3.78-2.41,5.82-2.41,1.55,0,2.96.46,3.54.52-.55,1.92-1.62,6.61-2.19,10.06-.15.85-.09,1.19.15,1.19.37,0,1.01-.4,2.1-1.52l.43.76ZM580,217.15c.67-.85,1.46-2.38,1.77-3.66.31-1.16.58-2.25.67-2.99-.43-.21-1.43-.49-2.32-.49-3.6,0-5.27,4.63-5.27,8.6,0,1.22.33,2.01.95,2.01.94,0,2.29-.94,4.2-3.47Z"/>
          <path class="cls-1" d="M597.98,219.44c-1.86,2.13-4.05,3.35-6.16,3.35s-3.44-1.61-3.44-4.51c0-2.53,1.04-5.43,3.11-7.31,1.43-1.34,3.41-2.29,4.85-2.29,1.34,0,2.35.7,2.38,1.4.03.58-.43,1.37-1.04,1.59-.27.12-.46.09-.7-.18-.7-.85-1.37-1.31-2.32-1.31-2.32,0-3.72,3.84-3.72,7.44,0,2.23.85,3.35,2.25,3.35,1.62,0,3.41-1.37,4.33-2.32l.46.79Z"/>
          <path class="cls-1" d="M606.88,219.77c-1.52,2.04-3.44,3.02-4.36,3.02-.79,0-1.13-.79-.55-3.23.49-2.01,1.34-5.27,1.92-7.74.12-.58.09-.85-.09-.85-.31,0-1.22.61-2.01,1.37l-.4-.79c1.43-1.55,3.51-2.87,4.48-2.87.76,0,.79,1.04.24,3.29-.58,2.19-1.31,5.27-1.86,7.44-.21.82-.21,1.16,0,1.16.3,0,1.13-.43,2.19-1.55l.43.76ZM607.73,203.8c0,.95-.67,1.77-1.62,1.77-.76,0-1.34-.55-1.34-1.37s.61-1.8,1.71-1.8c.82,0,1.25.64,1.25,1.4Z"/>
          <path class="cls-1" d="M622.18,213.43c0,3.17-1.59,6.43-4.27,8.14-1.1.67-2.38,1.22-3.75,1.22-2.9,0-4.08-2.32-4.08-4.75,0-4.2,2.26-7.22,4.91-8.53.98-.49,2.23-.82,3.14-.82,2.56,0,4.05,1.68,4.05,4.75ZM612.67,217.7c0,2.29.85,3.81,2.53,3.81,2.9,0,4.42-4.66,4.42-7.95,0-2.53-1.1-3.6-2.56-3.6-3.05,0-4.39,4.6-4.39,7.74ZM616.66,206.3l4.11-5.3c.64-.06,2.35.21,2.77.4l.03.31-6.22,5.09-.7-.49Z"/>
          <path class="cls-1" d="M447.47,213.43c0,3.17-1.59,6.43-4.27,8.14-1.1.67-2.38,1.22-3.75,1.22-2.9,0-4.08-2.32-4.08-4.75,0-4.2,2.26-7.22,4.91-8.53.98-.49,2.23-.82,3.14-.82,2.56,0,4.05,1.68,4.05,4.75ZM437.97,217.7c0,2.29.85,3.81,2.53,3.81,2.9,0,4.42-4.66,4.42-7.95,0-2.53-1.1-3.6-2.56-3.6-3.05,0-4.39,4.6-4.39,7.74Z"/>
          <path class="cls-1" d="M639.18,219.68c-1.61,2.13-3.47,3.11-4.36,3.11-.82,0-1.25-.73-.67-3.23.55-2.16,1.07-4.33,1.52-6.25.49-1.98.37-2.65-.4-2.65-1.01,0-3.35,1.71-5.43,4.88-.55.82-.79,1.61-1.04,2.56-.3,1.19-.7,2.83-.94,4.08-.76.15-1.59.4-2.16.61l-.21-.21c.85-3.32,1.74-7.04,2.5-10.42.21-.94.09-1.22-.15-1.22-.34,0-1.1.67-1.86,1.4l-.43-.79c1.4-1.77,2.99-2.87,3.99-2.87.88,0,1.13,1.07.49,3.72l-.43,1.8c2.71-3.54,5.45-5.52,7.28-5.52,1.01,0,1.95.7.97,4.79-.4,1.68-.97,4.02-1.43,5.94-.18.82-.18,1.19.03,1.19.27,0,1.16-.49,2.26-1.65l.46.73Z"/>
        </g>
        <rect class="cls-1" x="338.82" y="193.48" width="305.5" height="1.17"/>
        <rect class="cls-1" x="338.82" y="233.17" width="305.5" height="1.17"/>
      </g>
    </g>
  </g>
</svg>